<?xml version="1.0" encoding="UTF-8" standalone="no"?>
<!DOCTYPE svg PUBLIC "-//W3C//DTD SVG 1.1//EN"
 "http://www.w3.org/Graphics/SVG/1.1/DTD/svg11.dtd">
<!-- Generated by graphviz version 2.43.0 (0)
 -->
<!-- Title: Tree Pages: 1 -->
<svg width="720pt" height="434pt"
 viewBox="0.00 0.00 720.00 433.92" xmlns="http://www.w3.org/2000/svg" xmlns:xlink="http://www.w3.org/1999/xlink">
<g id="graph0" class="graph" transform="scale(0.66 0.66) rotate(0) translate(4 652.6)">
<title>Tree</title>
<polygon fill="white" stroke="transparent" points="-4,4 -4,-652.6 1085.5,-652.6 1085.5,4 -4,4"/>
<!-- 0 -->
<g id="node1" class="node">
<title>0</title>
<path fill="#fffefd" stroke="black" d="M664.5,-644C664.5,-644 533.5,-644 533.5,-644 527.5,-644 521.5,-638 521.5,-632 521.5,-632 521.5,-588 521.5,-588 521.5,-582 527.5,-576 533.5,-576 533.5,-576 664.5,-576 664.5,-576 670.5,-576 676.5,-582 676.5,-588 676.5,-588 676.5,-632 676.5,-632 676.5,-638 670.5,-644 664.5,-644"/>
<text text-anchor="start" x="543.5" y="-628.8" font-family="Helvetica,sans-Serif" font-size="14.00">de_mean ≤ &#45;11.19</text>
<text text-anchor="start" x="571" y="-613.8" font-family="Helvetica,sans-Serif" font-size="14.00">gini = 0.5</text>
<text text-anchor="start" x="543" y="-598.8" font-family="Helvetica,sans-Serif" font-size="14.00">samples = 112275</text>
<text text-anchor="start" x="529.5" y="-583.8" font-family="Helvetica,sans-Serif" font-size="14.00">value = [56378, 55897]</text>
</g>
<!-- 1 -->
<g id="node2" class="node">
<title>1</title>
<path fill="#9ccef2" stroke="black" d="M574.5,-526C574.5,-526 443.5,-526 443.5,-526 437.5,-526 431.5,-520 431.5,-514 431.5,-514 431.5,-470 431.5,-470 431.5,-464 437.5,-458 443.5,-458 443.5,-458 574.5,-458 574.5,-458 580.5,-458 586.5,-464 586.5,-470 586.5,-470 586.5,-514 586.5,-514 586.5,-520 580.5,-526 574.5,-526"/>
<text text-anchor="start" x="455" y="-510.8" font-family="Helvetica,sans-Serif" font-size="14.00">psd_slope ≤ &#45;3.16</text>
<text text-anchor="start" x="477" y="-495.8" font-family="Helvetica,sans-Serif" font-size="14.00">gini = 0.45</text>
<text text-anchor="start" x="456.5" y="-480.8" font-family="Helvetica,sans-Serif" font-size="14.00">samples = 58775</text>
<text text-anchor="start" x="439.5" y="-465.8" font-family="Helvetica,sans-Serif" font-size="14.00">value = [19655, 39120]</text>
</g>
<!-- 0&#45;&gt;1 -->
<g id="edge1" class="edge">
<title>0&#45;&gt;1</title>
<path fill="none" stroke="black" d="M573.21,-575.76C563.23,-562.9 551.7,-548.03 541.19,-534.48"/>
<polygon fill="black" stroke="black" points="543.69,-532 534.79,-526.25 538.16,-536.29 543.69,-532"/>
<text text-anchor="middle" x="531.66" y="-547.35" font-family="Helvetica,sans-Serif" font-size="14.00">True</text>
</g>
<!-- 2 -->
<g id="node11" class="node">
<title>2</title>
<path fill="#f1bb93" stroke="black" d="M754.5,-526C754.5,-526 623.5,-526 623.5,-526 617.5,-526 611.5,-520 611.5,-514 611.5,-514 611.5,-470 611.5,-470 611.5,-464 617.5,-458 623.5,-458 623.5,-458 754.5,-458 754.5,-458 760.5,-458 766.5,-464 766.5,-470 766.5,-470 766.5,-514 766.5,-514 766.5,-520 760.5,-526 754.5,-526"/>
<text text-anchor="start" x="627" y="-510.8" font-family="Helvetica,sans-Serif" font-size="14.00">psd_peak_freq ≤ 0.9</text>
<text text-anchor="start" x="657" y="-495.8" font-family="Helvetica,sans-Serif" font-size="14.00">gini = 0.43</text>
<text text-anchor="start" x="636.5" y="-480.8" font-family="Helvetica,sans-Serif" font-size="14.00">samples = 53500</text>
<text text-anchor="start" x="619.5" y="-465.8" font-family="Helvetica,sans-Serif" font-size="14.00">value = [36723, 16777]</text>
</g>
<!-- 0&#45;&gt;2 -->
<g id="edge10" class="edge">
<title>0&#45;&gt;2</title>
<path fill="none" stroke="black" d="M624.79,-575.76C634.77,-562.9 646.3,-548.03 656.81,-534.48"/>
<polygon fill="black" stroke="black" points="659.84,-536.29 663.21,-526.25 654.31,-532 659.84,-536.29"/>
<text text-anchor="middle" x="666.34" y="-547.35" font-family="Helvetica,sans-Serif" font-size="14.00">False</text>
</g>
<!-- 7 -->
<g id="node3" class="node">
<title>7</title>
<path fill="#f8decb" stroke="black" d="M383.5,-409C383.5,-409 210.5,-409 210.5,-409 204.5,-409 198.5,-403 198.5,-397 198.5,-397 198.5,-353 198.5,-353 198.5,-347 204.5,-341 210.5,-341 210.5,-341 383.5,-341 383.5,-341 389.5,-341 395.5,-347 395.5,-353 395.5,-353 395.5,-397 395.5,-397 395.5,-403 389.5,-409 383.5,-409"/>
<text text-anchor="start" x="206.5" y="-393.8" font-family="Helvetica,sans-Serif" font-size="14.00">psd_spectral_centroid ≤ 12.85</text>
<text text-anchor="start" x="265" y="-378.8" font-family="Helvetica,sans-Serif" font-size="14.00">gini = 0.49</text>
<text text-anchor="start" x="244.5" y="-363.8" font-family="Helvetica,sans-Serif" font-size="14.00">samples = 22374</text>
<text text-anchor="start" x="231.5" y="-348.8" font-family="Helvetica,sans-Serif" font-size="14.00">value = [12892, 9482]</text>
</g>
<!-- 1&#45;&gt;7 -->
<g id="edge2" class="edge">
<title>1&#45;&gt;7</title>
<path fill="none" stroke="black" d="M447.97,-457.89C422.69,-444.18 393.23,-428.2 367.07,-414.01"/>
<polygon fill="black" stroke="black" points="368.43,-410.77 357.97,-409.07 365.09,-416.92 368.43,-410.77"/>
</g>
<!-- 8 -->
<g id="node8" class="node">
<title>8</title>
<path fill="#66b3eb" stroke="black" d="M592.5,-409C592.5,-409 425.5,-409 425.5,-409 419.5,-409 413.5,-403 413.5,-397 413.5,-397 413.5,-353 413.5,-353 413.5,-347 419.5,-341 425.5,-341 425.5,-341 592.5,-341 592.5,-341 598.5,-341 604.5,-347 604.5,-353 604.5,-353 604.5,-397 604.5,-397 604.5,-403 598.5,-409 592.5,-409"/>
<text text-anchor="start" x="421.5" y="-393.8" font-family="Helvetica,sans-Serif" font-size="14.00">psd_slope_intercept ≤ &#45;19.44</text>
<text text-anchor="start" x="481" y="-378.8" font-family="Helvetica,sans-Serif" font-size="14.00">gini = 0.3</text>
<text text-anchor="start" x="456.5" y="-363.8" font-family="Helvetica,sans-Serif" font-size="14.00">samples = 36401</text>
<text text-anchor="start" x="443.5" y="-348.8" font-family="Helvetica,sans-Serif" font-size="14.00">value = [6763, 29638]</text>
</g>
<!-- 1&#45;&gt;8 -->
<g id="edge7" class="edge">
<title>1&#45;&gt;8</title>
<path fill="none" stroke="black" d="M509,-457.74C509,-445.82 509,-432.2 509,-419.54"/>
<polygon fill="black" stroke="black" points="512.5,-419.19 509,-409.19 505.5,-419.19 512.5,-419.19"/>
</g>
<!-- 13 -->
<g id="node4" class="node">
<title>13</title>
<path fill="#c9e4f8" stroke="black" d="M212,-291C212,-291 74,-291 74,-291 68,-291 62,-285 62,-279 62,-279 62,-235 62,-235 62,-229 68,-223 74,-223 74,-223 212,-223 212,-223 218,-223 224,-229 224,-235 224,-235 224,-279 224,-279 224,-285 218,-291 212,-291"/>
<text text-anchor="start" x="94" y="-275.8" font-family="Helvetica,sans-Serif" font-size="14.00">psd_mean ≤ 0.0</text>
<text text-anchor="start" x="111" y="-260.8" font-family="Helvetica,sans-Serif" font-size="14.00">gini = 0.49</text>
<text text-anchor="start" x="90.5" y="-245.8" font-family="Helvetica,sans-Serif" font-size="14.00">samples = 13445</text>
<text text-anchor="start" x="70" y="-230.8" font-family="Helvetica,sans-Serif" font-size="14.00">value = [5654.0, 7791.0]</text>
</g>
<!-- 7&#45;&gt;13 -->
<g id="edge3" class="edge">
<title>7&#45;&gt;13</title>
<path fill="none" stroke="black" d="M252.87,-340.76C234.83,-327.17 213.83,-311.35 195.05,-297.2"/>
<polygon fill="black" stroke="black" points="196.96,-294.27 186.87,-291.05 192.75,-299.86 196.96,-294.27"/>
</g>
<!-- 14 -->
<g id="node7" class="node">
<title>14</title>
<path fill="#eb9e67" stroke="black" d="M370,-283.5C370,-283.5 254,-283.5 254,-283.5 248,-283.5 242,-277.5 242,-271.5 242,-271.5 242,-242.5 242,-242.5 242,-236.5 248,-230.5 254,-230.5 254,-230.5 370,-230.5 370,-230.5 376,-230.5 382,-236.5 382,-242.5 382,-242.5 382,-271.5 382,-271.5 382,-277.5 376,-283.5 370,-283.5"/>
<text text-anchor="start" x="280" y="-268.3" font-family="Helvetica,sans-Serif" font-size="14.00">gini = 0.31</text>
<text text-anchor="start" x="263.5" y="-253.3" font-family="Helvetica,sans-Serif" font-size="14.00">samples = 8929</text>
<text text-anchor="start" x="250" y="-238.3" font-family="Helvetica,sans-Serif" font-size="14.00">value = [7238, 1691]</text>
</g>
<!-- 7&#45;&gt;14 -->
<g id="edge6" class="edge">
<title>7&#45;&gt;14</title>
<path fill="none" stroke="black" d="M301.3,-340.76C303.21,-325.96 305.47,-308.52 307.41,-293.47"/>
<polygon fill="black" stroke="black" points="310.89,-293.87 308.7,-283.5 303.95,-292.97 310.89,-293.87"/>
</g>
<!-- 17 -->
<g id="node5" class="node">
<title>17</title>
<path fill="#fffefd" stroke="black" d="M128,-165.5C128,-165.5 12,-165.5 12,-165.5 6,-165.5 0,-159.5 0,-153.5 0,-153.5 0,-124.5 0,-124.5 0,-118.5 6,-112.5 12,-112.5 12,-112.5 128,-112.5 128,-112.5 134,-112.5 140,-118.5 140,-124.5 140,-124.5 140,-153.5 140,-153.5 140,-159.5 134,-165.5 128,-165.5"/>
<text text-anchor="start" x="42" y="-150.3" font-family="Helvetica,sans-Serif" font-size="14.00">gini = 0.5</text>
<text text-anchor="start" x="17.5" y="-135.3" font-family="Helvetica,sans-Serif" font-size="14.00">samples = 11242</text>
<text text-anchor="start" x="8" y="-120.3" font-family="Helvetica,sans-Serif" font-size="14.00">value = [5654, 5588]</text>
</g>
<!-- 13&#45;&gt;17 -->
<g id="edge4" class="edge">
<title>13&#45;&gt;17</title>
<path fill="none" stroke="black" d="M122.08,-222.76C112.5,-207.54 101.16,-189.51 91.51,-174.18"/>
<polygon fill="black" stroke="black" points="94.34,-172.1 86.05,-165.5 88.41,-175.83 94.34,-172.1"/>
</g>
<!-- 18 -->
<g id="node6" class="node">
<title>18</title>
<path fill="#399de5" stroke="black" d="M263.5,-165.5C263.5,-165.5 170.5,-165.5 170.5,-165.5 164.5,-165.5 158.5,-159.5 158.5,-153.5 158.5,-153.5 158.5,-124.5 158.5,-124.5 158.5,-118.5 164.5,-112.5 170.5,-112.5 170.5,-112.5 263.5,-112.5 263.5,-112.5 269.5,-112.5 275.5,-118.5 275.5,-124.5 275.5,-124.5 275.5,-153.5 275.5,-153.5 275.5,-159.5 269.5,-165.5 263.5,-165.5"/>
<text text-anchor="start" x="189" y="-150.3" font-family="Helvetica,sans-Serif" font-size="14.00">gini = 0.0</text>
<text text-anchor="start" x="168.5" y="-135.3" font-family="Helvetica,sans-Serif" font-size="14.00">samples = 2203</text>
<text text-anchor="start" x="166.5" y="-120.3" font-family="Helvetica,sans-Serif" font-size="14.00">value = [0, 2203]</text>
</g>
<!-- 13&#45;&gt;18 -->
<g id="edge5" class="edge">
<title>13&#45;&gt;18</title>
<path fill="none" stroke="black" d="M164.21,-222.76C173.92,-207.54 185.41,-189.51 195.2,-174.18"/>
<polygon fill="black" stroke="black" points="198.3,-175.81 200.73,-165.5 192.4,-172.05 198.3,-175.81"/>
</g>
<!-- 9 -->
<g id="node9" class="node">
<title>9</title>
<path fill="#e6853f" stroke="black" d="M549,-283.5C549,-283.5 441,-283.5 441,-283.5 435,-283.5 429,-277.5 429,-271.5 429,-271.5 429,-242.5 429,-242.5 429,-236.5 435,-230.5 441,-230.5 441,-230.5 549,-230.5 549,-230.5 555,-230.5 561,-236.5 561,-242.5 561,-242.5 561,-271.5 561,-271.5 561,-277.5 555,-283.5 549,-283.5"/>
<text text-anchor="start" x="463" y="-268.3" font-family="Helvetica,sans-Serif" font-size="14.00">gini = 0.05</text>
<text text-anchor="start" x="446.5" y="-253.3" font-family="Helvetica,sans-Serif" font-size="14.00">samples = 4372</text>
<text text-anchor="start" x="437" y="-238.3" font-family="Helvetica,sans-Serif" font-size="14.00">value = [4252, 120]</text>
</g>
<!-- 8&#45;&gt;9 -->
<g id="edge8" class="edge">
<title>8&#45;&gt;9</title>
<path fill="none" stroke="black" d="M504.99,-340.76C503.2,-325.96 501.1,-308.52 499.28,-293.47"/>
<polygon fill="black" stroke="black" points="502.75,-293.01 498.08,-283.5 495.8,-293.85 502.75,-293.01"/>
</g>
<!-- 10 -->
<g id="node10" class="node">
<title>10</title>
<path fill="#4aa5e7" stroke="black" d="M714.5,-283.5C714.5,-283.5 591.5,-283.5 591.5,-283.5 585.5,-283.5 579.5,-277.5 579.5,-271.5 579.5,-271.5 579.5,-242.5 579.5,-242.5 579.5,-236.5 585.5,-230.5 591.5,-230.5 591.5,-230.5 714.5,-230.5 714.5,-230.5 720.5,-230.5 726.5,-236.5 726.5,-242.5 726.5,-242.5 726.5,-271.5 726.5,-271.5 726.5,-277.5 720.5,-283.5 714.5,-283.5"/>
<text text-anchor="start" x="621" y="-268.3" font-family="Helvetica,sans-Serif" font-size="14.00">gini = 0.14</text>
<text text-anchor="start" x="600.5" y="-253.3" font-family="Helvetica,sans-Serif" font-size="14.00">samples = 32029</text>
<text text-anchor="start" x="587.5" y="-238.3" font-family="Helvetica,sans-Serif" font-size="14.00">value = [2511, 29518]</text>
</g>
<!-- 8&#45;&gt;10 -->
<g id="edge9" class="edge">
<title>8&#45;&gt;10</title>
<path fill="none" stroke="black" d="M550.26,-340.76C570.13,-324.75 593.85,-305.65 613.48,-289.84"/>
<polygon fill="black" stroke="black" points="615.75,-292.5 621.34,-283.5 611.36,-287.05 615.75,-292.5"/>
</g>
<!-- 3 -->
<g id="node12" class="node">
<title>3</title>
<path fill="#4ca6e8" stroke="black" d="M743,-401.5C743,-401.5 635,-401.5 635,-401.5 629,-401.5 623,-395.5 623,-389.5 623,-389.5 623,-360.5 623,-360.5 623,-354.5 629,-348.5 635,-348.5 635,-348.5 743,-348.5 743,-348.5 749,-348.5 755,-354.5 755,-360.5 755,-360.5 755,-389.5 755,-389.5 755,-395.5 749,-401.5 743,-401.5"/>
<text text-anchor="start" x="657" y="-386.3" font-family="Helvetica,sans-Serif" font-size="14.00">gini = 0.16</text>
<text text-anchor="start" x="640.5" y="-371.3" font-family="Helvetica,sans-Serif" font-size="14.00">samples = 6646</text>
<text text-anchor="start" x="631" y="-356.3" font-family="Helvetica,sans-Serif" font-size="14.00">value = [584, 6062]</text>
</g>
<!-- 2&#45;&gt;3 -->
<g id="edge11" class="edge">
<title>2&#45;&gt;3</title>
<path fill="none" stroke="black" d="M689,-457.74C689,-443.32 689,-426.43 689,-411.75"/>
<polygon fill="black" stroke="black" points="692.5,-411.52 689,-401.52 685.5,-411.52 692.5,-411.52"/>
</g>
<!-- 4 -->
<g id="node13" class="node">
<title>4</title>
<path fill="#eda674" stroke="black" d="M916.5,-409C916.5,-409 785.5,-409 785.5,-409 779.5,-409 773.5,-403 773.5,-397 773.5,-397 773.5,-353 773.5,-353 773.5,-347 779.5,-341 785.5,-341 785.5,-341 916.5,-341 916.5,-341 922.5,-341 928.5,-347 928.5,-353 928.5,-353 928.5,-397 928.5,-397 928.5,-403 922.5,-409 916.5,-409"/>
<text text-anchor="start" x="810" y="-393.8" font-family="Helvetica,sans-Serif" font-size="14.00">de_std ≤ 0.94</text>
<text text-anchor="start" x="819" y="-378.8" font-family="Helvetica,sans-Serif" font-size="14.00">gini = 0.35</text>
<text text-anchor="start" x="798.5" y="-363.8" font-family="Helvetica,sans-Serif" font-size="14.00">samples = 46854</text>
<text text-anchor="start" x="781.5" y="-348.8" font-family="Helvetica,sans-Serif" font-size="14.00">value = [36139, 10715]</text>
</g>
<!-- 2&#45;&gt;4 -->
<g id="edge12" class="edge">
<title>2&#45;&gt;4</title>
<path fill="none" stroke="black" d="M735.86,-457.74C754.66,-444.39 776.48,-428.9 796.02,-415.03"/>
<polygon fill="black" stroke="black" points="798.12,-417.83 804.25,-409.19 794.07,-412.12 798.12,-417.83"/>
</g>
<!-- 5 -->
<g id="node14" class="node">
<title>5</title>
<path fill="#e9965a" stroke="black" d="M896.5,-291C896.5,-291 773.5,-291 773.5,-291 767.5,-291 761.5,-285 761.5,-279 761.5,-279 761.5,-235 761.5,-235 761.5,-229 767.5,-223 773.5,-223 773.5,-223 896.5,-223 896.5,-223 902.5,-223 908.5,-229 908.5,-235 908.5,-235 908.5,-279 908.5,-279 908.5,-285 902.5,-291 896.5,-291"/>
<text text-anchor="start" x="797.5" y="-275.8" font-family="Helvetica,sans-Serif" font-size="14.00">de_std ≤ 0.0</text>
<text text-anchor="start" x="803" y="-260.8" font-family="Helvetica,sans-Serif" font-size="14.00">gini = 0.24</text>
<text text-anchor="start" x="782.5" y="-245.8" font-family="Helvetica,sans-Serif" font-size="14.00">samples = 41606</text>
<text text-anchor="start" x="769.5" y="-230.8" font-family="Helvetica,sans-Serif" font-size="14.00">value = [35691, 5915]</text>
</g>
<!-- 4&#45;&gt;5 -->
<g id="edge13" class="edge">
<title>4&#45;&gt;5</title>
<path fill="none" stroke="black" d="M846.42,-340.76C844.72,-328.5 842.78,-314.43 840.99,-301.41"/>
<polygon fill="black" stroke="black" points="844.42,-300.67 839.59,-291.25 837.48,-301.63 844.42,-300.67"/>
</g>
<!-- 6 -->
<g id="node19" class="node">
<title>6</title>
<path fill="#4ba6e7" stroke="black" d="M1069.5,-283.5C1069.5,-283.5 938.5,-283.5 938.5,-283.5 932.5,-283.5 926.5,-277.5 926.5,-271.5 926.5,-271.5 926.5,-242.5 926.5,-242.5 926.5,-236.5 932.5,-230.5 938.5,-230.5 938.5,-230.5 1069.5,-230.5 1069.5,-230.5 1075.5,-230.5 1081.5,-236.5 1081.5,-242.5 1081.5,-242.5 1081.5,-271.5 1081.5,-271.5 1081.5,-277.5 1075.5,-283.5 1069.5,-283.5"/>
<text text-anchor="start" x="972" y="-268.3" font-family="Helvetica,sans-Serif" font-size="14.00">gini = 0.16</text>
<text text-anchor="start" x="955.5" y="-253.3" font-family="Helvetica,sans-Serif" font-size="14.00">samples = 5248</text>
<text text-anchor="start" x="934.5" y="-238.3" font-family="Helvetica,sans-Serif" font-size="14.00">value = [448.0, 4800.0]</text>
</g>
<!-- 4&#45;&gt;6 -->
<g id="edge18" class="edge">
<title>4&#45;&gt;6</title>
<path fill="none" stroke="black" d="M894.84,-340.76C916.05,-324.68 941.37,-305.48 962.29,-289.62"/>
<polygon fill="black" stroke="black" points="964.51,-292.33 970.36,-283.5 960.28,-286.75 964.51,-292.33"/>
</g>
<!-- 11 -->
<g id="node15" class="node">
<title>11</title>
<path fill="#399de5" stroke="black" d="M795.5,-165.5C795.5,-165.5 702.5,-165.5 702.5,-165.5 696.5,-165.5 690.5,-159.5 690.5,-153.5 690.5,-153.5 690.5,-124.5 690.5,-124.5 690.5,-118.5 696.5,-112.5 702.5,-112.5 702.5,-112.5 795.5,-112.5 795.5,-112.5 801.5,-112.5 807.5,-118.5 807.5,-124.5 807.5,-124.5 807.5,-153.5 807.5,-153.5 807.5,-159.5 801.5,-165.5 795.5,-165.5"/>
<text text-anchor="start" x="721" y="-150.3" font-family="Helvetica,sans-Serif" font-size="14.00">gini = 0.0</text>
<text text-anchor="start" x="700.5" y="-135.3" font-family="Helvetica,sans-Serif" font-size="14.00">samples = 2563</text>
<text text-anchor="start" x="698.5" y="-120.3" font-family="Helvetica,sans-Serif" font-size="14.00">value = [0, 2563]</text>
</g>
<!-- 5&#45;&gt;11 -->
<g id="edge14" class="edge">
<title>5&#45;&gt;11</title>
<path fill="none" stroke="black" d="M810.36,-222.76C798.96,-207.39 785.46,-189.18 774.02,-173.75"/>
<polygon fill="black" stroke="black" points="776.67,-171.45 767.91,-165.5 771.05,-175.62 776.67,-171.45"/>
</g>
<!-- 12 -->
<g id="node16" class="node">
<title>12</title>
<path fill="#e78d4c" stroke="black" d="M1004,-173C1004,-173 838,-173 838,-173 832,-173 826,-167 826,-161 826,-161 826,-117 826,-117 826,-111 832,-105 838,-105 838,-105 1004,-105 1004,-105 1010,-105 1016,-111 1016,-117 1016,-117 1016,-161 1016,-161 1016,-167 1010,-173 1004,-173"/>
<text text-anchor="start" x="834" y="-157.8" font-family="Helvetica,sans-Serif" font-size="14.00">psd_spectral_centroid ≤ 1.42</text>
<text text-anchor="start" x="889" y="-142.8" font-family="Helvetica,sans-Serif" font-size="14.00">gini = 0.16</text>
<text text-anchor="start" x="868.5" y="-127.8" font-family="Helvetica,sans-Serif" font-size="14.00">samples = 39043</text>
<text text-anchor="start" x="855.5" y="-112.8" font-family="Helvetica,sans-Serif" font-size="14.00">value = [35691, 3352]</text>
</g>
<!-- 5&#45;&gt;12 -->
<g id="edge15" class="edge">
<title>5&#45;&gt;12</title>
<path fill="none" stroke="black" d="M859.64,-222.76C869.18,-209.9 880.2,-195.03 890.24,-181.48"/>
<polygon fill="black" stroke="black" points="893.21,-183.36 896.35,-173.25 887.59,-179.19 893.21,-183.36"/>
</g>
<!-- 15 -->
<g id="node17" class="node">
<title>15</title>
<path fill="#77bced" stroke="black" d="M894.5,-56.5C894.5,-56.5 793.5,-56.5 793.5,-56.5 787.5,-56.5 781.5,-50.5 781.5,-44.5 781.5,-44.5 781.5,-15.5 781.5,-15.5 781.5,-9.5 787.5,-3.5 793.5,-3.5 793.5,-3.5 894.5,-3.5 894.5,-3.5 900.5,-3.5 906.5,-9.5 906.5,-15.5 906.5,-15.5 906.5,-44.5 906.5,-44.5 906.5,-50.5 900.5,-56.5 894.5,-56.5"/>
<text text-anchor="start" x="812" y="-41.3" font-family="Helvetica,sans-Serif" font-size="14.00">gini = 0.36</text>
<text text-anchor="start" x="795.5" y="-26.3" font-family="Helvetica,sans-Serif" font-size="14.00">samples = 1253</text>
<text text-anchor="start" x="789.5" y="-11.3" font-family="Helvetica,sans-Serif" font-size="14.00">value = [300, 953]</text>
</g>
<!-- 12&#45;&gt;15 -->
<g id="edge16" class="edge">
<title>12&#45;&gt;15</title>
<path fill="none" stroke="black" d="M897.06,-104.73C888.02,-92.17 877.72,-77.86 868.62,-65.22"/>
<polygon fill="black" stroke="black" points="871.23,-62.84 862.54,-56.77 865.54,-66.93 871.23,-62.84"/>
</g>
<!-- 16 -->
<g id="node18" class="node">
<title>16</title>
<path fill="#e78a46" stroke="black" d="M1059.5,-56.5C1059.5,-56.5 936.5,-56.5 936.5,-56.5 930.5,-56.5 924.5,-50.5 924.5,-44.5 924.5,-44.5 924.5,-15.5 924.5,-15.5 924.5,-9.5 930.5,-3.5 936.5,-3.5 936.5,-3.5 1059.5,-3.5 1059.5,-3.5 1065.5,-3.5 1071.5,-9.5 1071.5,-15.5 1071.5,-15.5 1071.5,-44.5 1071.5,-44.5 1071.5,-50.5 1065.5,-56.5 1059.5,-56.5"/>
<text text-anchor="start" x="966" y="-41.3" font-family="Helvetica,sans-Serif" font-size="14.00">gini = 0.12</text>
<text text-anchor="start" x="945.5" y="-26.3" font-family="Helvetica,sans-Serif" font-size="14.00">samples = 37790</text>
<text text-anchor="start" x="932.5" y="-11.3" font-family="Helvetica,sans-Serif" font-size="14.00">value = [35391, 2399]</text>
</g>
<!-- 12&#45;&gt;16 -->
<g id="edge17" class="edge">
<title>12&#45;&gt;16</title>
<path fill="none" stroke="black" d="M944.94,-104.73C953.98,-92.17 964.28,-77.86 973.38,-65.22"/>
<polygon fill="black" stroke="black" points="976.46,-66.93 979.46,-56.77 970.77,-62.84 976.46,-66.93"/>
</g>
</g>
</svg>
